<?xml version="1.0" encoding="utf-8"?><!-- Generator: Adobe Illustrator 15.0.0, SVG Export Plug-In . SVG Version: 6.00 Build 0)  --><!DOCTYPE svg PUBLIC "-//W3C//DTD SVG 1.1//EN" "http://www.w3.org/Graphics/SVG/1.1/DTD/svg11.dtd"><svg xmlns="http://www.w3.org/2000/svg" xmlns:xlink="http://www.w3.org/1999/xlink" viewBox="0 0 50 50" width="18px" height="18px"><path d="M29.638,0.229c-0.23-0.19-0.533-0.268-0.825-0.212l-28,5.333C0.341,5.44,0,5.853,0,6.333v37.334c0,0.48,0.341,0.893,0.813,0.982l28,5.333C28.875,49.994,28.938,50,29,50c0.23,0,0.457-0.08,0.638-0.229C29.867,49.58,30,49.298,30,49V1C30,0.702,29.867,0.419,29.638,0.229z M18.517,34.377L18.517,34.377l-3.221-6.088c-0.122-0.227-0.248-0.645-0.378-1.252h-0.052c-0.061,0.287-0.205,0.722-0.431,1.304l-3.233,6.037h-5.02l5.959-9.349l-5.45-9.35h5.125l2.673,5.607c0.209,0.443,0.396,0.969,0.561,1.578h0.05c0.104-0.365,0.3-0.909,0.587-1.63l2.973-5.555h4.694l-5.607,9.271l5.764,9.427H18.517z"/><path d="M47,6H32v7h2v2h-2v5h2v2h-2v5h2v2h-2v6h2v2h-2v7h15c1.103,0,2-0.897,2-2V8C49,6.897,48.103,6,47,6z M44,37h-8v-2h8V37z M44,29h-8v-2h8V29z M44,22h-8v-2h8V22z M44,15h-8v-2h8V15z"/></svg>